<svg width="108" height="108" viewBox="0 0 108 108" fill="none" xmlns="http://www.w3.org/2000/svg">
<path d="M59.033 28.4897C59.8154 28.4726 60.5917 28.6329 61.3043 28.9587C62.017 29.2845 62.6478 29.7676 63.1502 30.3721C64.3498 31.9956 64.9272 34.0008 64.7764 36.019C64.4386 39.8837 63.4315 43.6589 61.8009 47.1735H64.4304L64.292 48.4284H61.2473C59.952 51.2662 59.1559 54.3093 58.8946 57.4217H57.6491C57.8184 54.3022 58.5942 51.2466 59.9326 48.4284H55.9192C54.5352 55.7253 52.7592 65.7643 50.591 78.5455H42.2181L47.5463 48.4284H43.3176L43.456 47.1735H47.7539L48.8611 41.1702C49.1902 37.672 50.3663 34.3087 52.2863 31.3752C53.1097 30.3976 54.1486 29.6275 55.3201 29.1265C56.4915 28.6255 57.763 28.4074 59.033 28.4897ZM63.4539 35.8796C63.4948 34.3581 63.0983 32.857 62.3122 31.5572C62.0467 31.0318 61.6472 30.5869 61.1547 30.2684C60.6622 29.9499 60.0945 29.7691 59.5097 29.7446C59.0484 31.5521 57.9182 37.3617 56.1191 47.1735H60.4093C62.1555 43.6483 63.1928 39.8101 63.4616 35.8796H63.4539Z" fill="#2B2B2B"/>
</svg>
