<svg width="108" height="108" viewBox="0 0 108 108" fill="none" xmlns="http://www.w3.org/2000/svg">
<path d="M39.9727 43.1715C39.9727 35.4375 45.9844 29.7422 53.5222 29.7422C61.0601 29.7422 67.0676 35.4375 67.0676 43.1715C67.0676 50.9055 61.0664 56.604 53.5222 56.604C45.978 56.604 39.9727 50.9066 39.9727 43.1715ZM61.5252 43.1715C61.5252 38.2862 58.2947 34.5526 53.5222 34.5526C48.7498 34.5526 45.5161 38.2852 45.5161 43.1715C45.5161 48.0579 48.7498 51.7946 53.5222 51.7946C58.2947 51.7946 61.5252 48.06 61.5252 43.1715Z" fill="white"/>
<path d="M64.1683 61.5937V78.2915H58.7799V61.8985C58.7799 58.0858 57.125 56.6251 53.5454 56.6251C50.0059 56.6251 48.3891 58.088 48.3891 61.8985V78.2915H43.0007V61.5937C43.0007 54.9713 47.5812 51.7788 53.5475 51.7788C59.5899 51.7756 64.1683 54.9682 64.1683 61.5937Z" fill="white"/>
</svg>
